<svg width="488" height="399" viewBox="0 0 488 399" fill="none" xmlns="http://www.w3.org/2000/svg">
<g filter="url(#filter0_f_239_2967)">
<ellipse cx="244" cy="142.5" rx="132" ry="30.5" fill="#3DBBFF"/>
</g>
<g filter="url(#filter1_b_239_2967)">
<rect x="47" y="23" width="87.2" height="87.2" rx="24" fill="black" fill-opacity="0.01"/>
<rect x="47.25" y="23.25" width="86.7" height="86.7" rx="23.75" stroke="url(#paint0_linear_239_2967)" stroke-width="0.5"/>
<path d="M105.85 67.6941C106.019 67.2162 105.769 66.6913 105.291 66.5217C104.814 66.3521 104.289 66.6021 104.119 67.08L105.85 67.6941ZM100.579 79.8035L101.444 80.1105L100.579 79.8035ZM97.6071 82.3762L97.7872 83.2766L97.6071 82.3762ZM71.6694 87.5637L70.7657 87.4008C70.7118 87.6999 70.8094 88.0063 71.0263 88.2192C71.2433 88.432 71.5515 88.5238 71.8495 88.4642L71.6694 87.5637ZM76.4028 61.3152L77.3065 61.4781L76.4028 61.3152ZM79.1335 58.2215L79.4074 59.0979H79.4074L79.1335 58.2215ZM92.12 55.1252C92.604 54.974 92.8738 54.4589 92.7226 53.9749C92.5713 53.4908 92.0563 53.221 91.5722 53.3723L92.12 55.1252ZM71.4893 86.4452C71.1307 86.8038 71.1307 87.3852 71.4893 87.7438C71.848 88.1024 72.4294 88.1024 72.788 87.7438L71.4893 86.4452ZM84.0494 76.4824C84.408 76.1238 84.408 75.5424 84.0494 75.1838C83.6908 74.8252 83.1093 74.8252 82.7507 75.1838L84.0494 76.4824ZM112.492 58.0026L113.141 57.3533L112.492 58.0026ZM112.492 61.7564L111.843 61.1071L112.492 61.7564ZM97.4768 46.7412L96.8275 46.0919V46.0919L97.4768 46.7412ZM101.231 46.7412L100.581 47.3905V47.3905L101.231 46.7412ZM92.7845 55.1872L93.4339 54.5379L92.7845 55.1872ZM92.7845 51.4334L93.4339 52.0827L92.7845 51.4334ZM104.046 66.4486L103.397 67.0979L104.046 66.4486ZM107.8 66.4486L108.449 67.0979L107.8 66.4486ZM104.119 67.08L99.7132 79.4964L101.444 80.1105L105.85 67.6941L104.119 67.08ZM97.427 81.4758L71.4893 86.6633L71.8495 88.4642L97.7872 83.2766L97.427 81.4758ZM72.5731 87.7267L77.3065 61.4781L75.4991 61.1522L70.7657 87.4008L72.5731 87.7267ZM79.4074 59.0979L92.12 55.1252L91.5722 53.3723L78.8596 57.345L79.4074 59.0979ZM77.3065 61.4781C77.5089 60.3554 78.3185 59.4382 79.4074 59.0979L78.8596 57.345C77.1179 57.8893 75.8229 59.3564 75.4991 61.1522L77.3065 61.4781ZM99.7132 79.4964C99.3526 80.5125 98.4843 81.2643 97.427 81.4758L97.7872 83.2766C99.4784 82.9384 100.867 81.7359 101.444 80.1105L99.7132 79.4964ZM72.788 87.7438L84.0494 76.4824L82.7507 75.1838L71.4893 86.4452L72.788 87.7438ZM104.695 65.7993L93.4339 54.5379L92.1352 55.8365L103.397 67.0979L104.695 65.7993ZM93.4339 52.0827L98.1261 47.3905L96.8275 46.0919L92.1352 50.7841L93.4339 52.0827ZM100.581 47.3905L111.843 58.6519L113.141 57.3533L101.88 46.0919L100.581 47.3905ZM111.843 61.1071L107.15 65.7993L108.449 67.0979L113.141 62.4057L111.843 61.1071ZM111.843 58.6519C112.521 59.3299 112.521 60.4291 111.843 61.1071L113.141 62.4057C114.536 61.0105 114.536 58.7485 113.141 57.3533L111.843 58.6519ZM98.1261 47.3905C98.8041 46.7125 99.9033 46.7125 100.581 47.3905L101.88 46.0919C100.485 44.6967 98.2227 44.6967 96.8275 46.0919L98.1261 47.3905ZM93.4339 54.5379C92.7559 53.8599 92.7559 52.7607 93.4339 52.0827L92.1352 50.7841C90.7401 52.1793 90.74 54.4414 92.1352 55.8365L93.4339 54.5379ZM103.397 67.0979C104.792 68.4931 107.054 68.4931 108.449 67.0979L107.15 65.7993C106.472 66.4773 105.373 66.4773 104.695 65.7993L103.397 67.0979ZM84.9878 68.0364C86.7024 66.3218 89.4822 66.3218 91.1968 68.0364L92.4954 66.7378C90.0636 64.306 86.121 64.306 83.6892 66.7378L84.9878 68.0364ZM91.1968 68.0364C92.9114 69.7509 92.9114 72.5308 91.1968 74.2454L92.4954 75.544C94.9272 73.1122 94.9272 69.1695 92.4954 66.7378L91.1968 68.0364ZM91.1968 74.2454C89.4822 75.9599 86.7024 75.9599 84.9878 74.2454L83.6892 75.544C86.121 77.9757 90.0636 77.9757 92.4954 75.544L91.1968 74.2454ZM84.9878 74.2454C83.2732 72.5308 83.2732 69.7509 84.9878 68.0364L83.6892 66.7378C81.2574 69.1695 81.2574 73.1122 83.6892 75.544L84.9878 74.2454Z" fill="url(#paint1_linear_239_2967)"/>
</g>
<g filter="url(#filter2_b_239_2967)">
<rect x="98" y="73" width="276" height="276" rx="50" fill="black" fill-opacity="0.01"/>
<rect x="98.5" y="73.5" width="275" height="275" rx="49.5" stroke="url(#paint2_linear_239_2967)"/>
<path d="M266.19 275.28L266.192 251.177C266.193 237.863 255.4 227.069 242.086 227.069H188.107C174.795 227.069 164.003 237.86 164.002 251.172L163.999 275.28M307.997 275.282L307.999 251.178C308 237.864 297.207 227.071 283.894 227.071M261.547 151.454C267.466 155.846 271.303 162.887 271.303 170.825C271.303 178.762 267.466 185.804 261.547 190.196M239.703 170.823C239.703 184.137 228.91 194.929 215.597 194.929C202.284 194.929 191.492 184.137 191.492 170.823C191.492 157.51 202.284 146.718 215.597 146.718C228.91 146.718 239.703 157.51 239.703 170.823Z" stroke="url(#paint3_linear_239_2967)" stroke-width="6.26087" stroke-linecap="round" stroke-linejoin="round"/>
</g>
<g filter="url(#filter3_b_239_2967)">
<rect x="296" y="297" width="87.2" height="87.2" rx="24" fill="black" fill-opacity="0.01"/>
<rect x="296.25" y="297.25" width="86.7" height="86.7" rx="23.75" stroke="url(#paint4_linear_239_2967)" stroke-width="0.5"/>
<path d="M360.4 319.8L361.318 319.8C361.318 319.521 361.191 319.257 360.973 319.083C360.755 318.909 360.47 318.843 360.198 318.904L360.4 319.8ZM334.369 353.865L335.288 353.866V353.865H334.369ZM332.76 358.453L333.479 359.023H333.479L332.76 358.453ZM328.598 361.144L328.368 360.255L328.598 361.144ZM319.842 357.631L320.631 357.161L319.842 357.631ZM318.867 352.879L319.776 353.003L318.867 352.879ZM321.08 348.534L320.442 347.874H320.442L321.08 348.534ZM325.569 346.392L325.453 345.481H325.453L325.569 346.392ZM330.477 347.337L330.029 348.138L330.064 348.158L330.1 348.174L330.477 347.337ZM333.535 351.422C333.747 351.883 334.292 352.085 334.753 351.874C335.213 351.662 335.416 351.117 335.204 350.656L333.535 351.422ZM360.4 351.313L361.318 351.314V351.313L360.4 351.313ZM358.79 355.901L358.071 355.33L358.79 355.901ZM349.635 358.274L349.293 359.126L349.635 358.274ZM344.897 350.327L343.987 350.204L344.897 350.327ZM347.111 345.982L346.472 345.323L347.111 345.982ZM356.507 344.785L356.059 345.586L356.094 345.606L356.13 345.622L356.507 344.785ZM360.198 318.904L335.857 324.396L336.261 326.188L360.602 320.696L360.198 318.904ZM333.451 327.405V353.865H335.288V327.405H333.451ZM333.451 353.865C333.451 355.314 332.957 356.726 332.04 357.882L333.479 359.023C334.65 357.547 335.287 355.734 335.288 353.866L333.451 353.865ZM332.04 357.882C331.123 359.039 329.834 359.875 328.368 360.255L328.829 362.032C330.673 361.554 332.309 360.499 333.479 359.023L332.04 357.882ZM328.368 360.255C326.902 360.635 325.347 360.536 323.946 359.974L323.263 361.678C325.028 362.386 326.984 362.511 328.829 362.032L328.368 360.255ZM323.946 359.974C322.546 359.412 321.382 358.421 320.631 357.161L319.054 358.101C320.016 359.715 321.497 360.97 323.263 361.678L323.946 359.974ZM320.631 357.161C319.88 355.901 319.581 354.44 319.776 353.003L317.957 352.755C317.705 354.608 318.091 356.487 319.054 358.101L320.631 357.161ZM319.776 353.003C319.972 351.566 320.652 350.226 321.719 349.194L320.442 347.874C319.084 349.188 318.209 350.903 317.957 352.755L319.776 353.003ZM321.719 349.194C322.786 348.161 324.179 347.494 325.685 347.303L325.453 345.481C323.56 345.722 321.798 346.561 320.442 347.874L321.719 349.194ZM325.685 347.303C327.19 347.111 328.718 347.406 330.029 348.138L330.925 346.535C329.268 345.609 327.345 345.24 325.453 345.481L325.685 347.303ZM330.1 348.174C330.167 348.204 330.384 348.334 330.728 348.585C331.05 348.821 331.435 349.127 331.821 349.467C332.632 350.181 333.305 350.923 333.535 351.422L335.204 350.656C334.797 349.769 333.849 348.806 333.035 348.089C332.608 347.713 332.18 347.371 331.811 347.102C331.463 346.848 331.112 346.616 330.854 346.5L330.1 348.174ZM359.482 319.8L359.481 348.487L361.318 348.487L361.318 319.8L359.482 319.8ZM359.481 348.487L359.482 351.313L361.318 351.313L361.318 348.487L359.481 348.487ZM359.482 351.313C359.481 352.762 358.987 354.174 358.071 355.33L359.51 356.471C360.68 354.995 361.318 353.182 361.318 351.314L359.482 351.313ZM358.071 355.33C357.154 356.487 355.864 357.323 354.398 357.703L354.859 359.481C356.704 359.002 358.34 357.947 359.51 356.471L358.071 355.33ZM354.398 357.703C352.932 358.083 351.377 357.984 349.977 357.422L349.293 359.126C351.059 359.835 353.014 359.959 354.859 359.481L354.398 357.703ZM349.977 357.422C348.576 356.86 347.413 355.869 346.661 354.609L345.084 355.549C346.046 357.163 347.527 358.418 349.293 359.126L349.977 357.422ZM346.661 354.609C345.91 353.349 345.611 351.888 345.807 350.451L343.987 350.204C343.735 352.056 344.122 353.936 345.084 355.549L346.661 354.609ZM345.807 350.451C346.002 349.014 346.683 347.674 347.749 346.642L346.472 345.323C345.115 346.636 344.239 348.351 343.987 350.204L345.807 350.451ZM347.749 346.642C348.816 345.609 350.21 344.942 351.715 344.751L351.483 342.929C349.591 343.17 347.829 344.009 346.472 345.323L347.749 346.642ZM351.715 344.751C353.221 344.559 354.748 344.854 356.059 345.586L356.955 343.983C355.299 343.057 353.375 342.688 351.483 342.929L351.715 344.751ZM356.13 345.622C356.197 345.652 356.414 345.782 356.758 346.033C357.081 346.269 357.465 346.575 357.851 346.914C358.662 347.629 359.336 348.37 359.565 348.87L361.234 348.103C360.827 347.217 359.879 346.253 359.065 345.536C358.638 345.16 358.21 344.819 357.841 344.55C357.494 344.296 357.142 344.064 356.884 343.948L356.13 345.622ZM335.857 324.396C334.45 324.713 333.451 325.963 333.451 327.405H335.288C335.288 326.822 335.692 326.316 336.261 326.188L335.857 324.396Z" fill="url(#paint5_linear_239_2967)"/>
</g>
<defs>
<filter id="filter0_f_239_2967" x="0.900002" y="0.900002" width="486.2" height="283.2" filterUnits="userSpaceOnUse" color-interpolation-filters="sRGB">
<feFlood flood-opacity="0" result="BackgroundImageFix"/>
<feBlend mode="normal" in="SourceGraphic" in2="BackgroundImageFix" result="shape"/>
<feGaussianBlur stdDeviation="55.55" result="effect1_foregroundBlur_239_2967"/>
</filter>
<filter id="filter1_b_239_2967" x="9.63945" y="-14.3606" width="161.921" height="161.921" filterUnits="userSpaceOnUse" color-interpolation-filters="sRGB">
<feFlood flood-opacity="0" result="BackgroundImageFix"/>
<feGaussianBlur in="BackgroundImageFix" stdDeviation="18.6803"/>
<feComposite in2="SourceAlpha" operator="in" result="effect1_backgroundBlur_239_2967"/>
<feBlend mode="normal" in="SourceGraphic" in2="effect1_backgroundBlur_239_2967" result="shape"/>
</filter>
<filter id="filter2_b_239_2967" x="-2" y="-27" width="476" height="476" filterUnits="userSpaceOnUse" color-interpolation-filters="sRGB">
<feFlood flood-opacity="0" result="BackgroundImageFix"/>
<feGaussianBlur in="BackgroundImageFix" stdDeviation="50"/>
<feComposite in2="SourceAlpha" operator="in" result="effect1_backgroundBlur_239_2967"/>
<feBlend mode="normal" in="SourceGraphic" in2="effect1_backgroundBlur_239_2967" result="shape"/>
</filter>
<filter id="filter3_b_239_2967" x="258.639" y="259.639" width="161.921" height="161.921" filterUnits="userSpaceOnUse" color-interpolation-filters="sRGB">
<feFlood flood-opacity="0" result="BackgroundImageFix"/>
<feGaussianBlur in="BackgroundImageFix" stdDeviation="18.6803"/>
<feComposite in2="SourceAlpha" operator="in" result="effect1_backgroundBlur_239_2967"/>
<feBlend mode="normal" in="SourceGraphic" in2="effect1_backgroundBlur_239_2967" result="shape"/>
</filter>
<linearGradient id="paint0_linear_239_2967" x1="52.1974" y1="25.4543" x2="97.5364" y2="110.2" gradientUnits="userSpaceOnUse">
<stop stop-color="white"/>
<stop offset="1" stop-color="white" stop-opacity="0"/>
</linearGradient>
<linearGradient id="paint1_linear_239_2967" x1="92.4694" y1="45.9637" x2="92.4679" y2="144.074" gradientUnits="userSpaceOnUse">
<stop stop-color="white" stop-opacity="0.5"/>
<stop offset="1" stop-color="white" stop-opacity="0"/>
</linearGradient>
<linearGradient id="paint2_linear_239_2967" x1="114.45" y1="80.7682" x2="224.119" y2="349" gradientUnits="userSpaceOnUse">
<stop stop-color="white"/>
<stop offset="1" stop-color="white" stop-opacity="0"/>
</linearGradient>
<linearGradient id="paint3_linear_239_2967" x1="235.999" y1="146.718" x2="235.999" y2="275.282" gradientUnits="userSpaceOnUse">
<stop stop-color="white"/>
<stop offset="1" stop-color="white" stop-opacity="0"/>
</linearGradient>
<linearGradient id="paint4_linear_239_2967" x1="301.197" y1="299.454" x2="346.536" y2="384.2" gradientUnits="userSpaceOnUse">
<stop stop-color="white"/>
<stop offset="1" stop-color="white" stop-opacity="0"/>
</linearGradient>
<linearGradient id="paint5_linear_239_2967" x1="339.6" y1="319.8" x2="339.598" y2="417.911" gradientUnits="userSpaceOnUse">
<stop stop-color="white" stop-opacity="0.5"/>
<stop offset="1" stop-color="white" stop-opacity="0"/>
</linearGradient>
</defs>
</svg>
