<svg width="424" height="380" viewBox="0 0 424 380" fill="none" xmlns="http://www.w3.org/2000/svg">
<g clip-path="url(#clip0_433_310)">
<g filter="url(#filter0_f_433_310)">
<ellipse cx="226.5" cy="146" rx="126.5" ry="29" fill="#3DBBFF"/>
</g>
<g filter="url(#filter1_b_433_310)">
<rect x="40" y="28" width="87.2" height="87.2" rx="24" fill="black" fill-opacity="0.01"/>
<rect x="40.25" y="28.25" width="86.7" height="86.7" rx="23.75" stroke="url(#paint0_linear_433_310)" stroke-width="0.5"/>
<path d="M98.8493 72.6941C99.0189 72.2162 98.7689 71.6913 98.291 71.5217C97.813 71.3521 97.2881 71.6021 97.1185 72.08L98.8493 72.6941ZM93.5781 84.8035L94.4435 85.1105L94.4435 85.1105L93.5781 84.8035ZM90.6066 87.3762L90.7867 88.2766L90.7867 88.2766L90.6066 87.3762ZM64.6689 92.5637L63.7653 92.4008C63.7113 92.6999 63.8089 93.0063 64.0258 93.2192C64.2428 93.432 64.551 93.5238 64.849 93.4642L64.6689 92.5637ZM69.4023 66.3152L70.306 66.4781L70.306 66.4781L69.4023 66.3152ZM72.133 63.2215L72.4069 64.0979L72.4069 64.0979L72.133 63.2215ZM85.1195 60.1252C85.6036 59.974 85.8733 59.4589 85.7221 58.9749C85.5708 58.4908 85.0558 58.221 84.5717 58.3723L85.1195 60.1252ZM64.4889 91.4452C64.1303 91.8038 64.1303 92.3852 64.4889 92.7438C64.8475 93.1024 65.4289 93.1024 65.7875 92.7438L64.4889 91.4452ZM77.0489 81.4824C77.4075 81.1238 77.4075 80.5424 77.0489 80.1838C76.6903 79.8252 76.1089 79.8252 75.7503 80.1838L77.0489 81.4824ZM105.491 63.0026L106.141 62.3533L106.141 62.3533L105.491 63.0026ZM105.491 66.7564L104.842 66.1071L104.842 66.1071L105.491 66.7564ZM90.4763 51.7412L89.827 51.0919L89.827 51.0919L90.4763 51.7412ZM94.2301 51.7412L93.5808 52.3905L93.5808 52.3905L94.2301 51.7412ZM85.7841 60.1872L86.4334 59.5379L85.7841 60.1872ZM85.7841 56.4334L86.4334 57.0827L86.4334 57.0827L85.7841 56.4334ZM97.0455 71.4486L96.3961 72.0979L97.0455 71.4486ZM100.799 71.4486L101.449 72.0979L101.449 72.0979L100.799 71.4486ZM97.1185 72.08L92.7127 84.4964L94.4435 85.1105L98.8493 72.6941L97.1185 72.08ZM90.4266 86.4758L64.4889 91.6633L64.849 93.4642L90.7867 88.2766L90.4266 86.4758ZM65.5726 92.7267L70.306 66.4781L68.4986 66.1522L63.7653 92.4008L65.5726 92.7267ZM72.4069 64.0979L85.1195 60.1252L84.5717 58.3723L71.8591 62.345L72.4069 64.0979ZM70.306 66.4781C70.5084 65.3554 71.318 64.4382 72.4069 64.0979L71.8591 62.345C70.1174 62.8893 68.8224 64.3564 68.4986 66.1522L70.306 66.4781ZM92.7127 84.4964C92.3521 85.5125 91.4839 86.2643 90.4266 86.4758L90.7867 88.2766C92.4779 87.9384 93.8667 86.7359 94.4435 85.1105L92.7127 84.4964ZM65.7875 92.7438L77.0489 81.4824L75.7503 80.1838L64.4889 91.4452L65.7875 92.7438ZM97.6948 70.7993L86.4334 59.5379L85.1347 60.8365L96.3961 72.0979L97.6948 70.7993ZM86.4334 57.0827L91.1256 52.3905L89.827 51.0919L85.1347 55.7841L86.4334 57.0827ZM93.5808 52.3905L104.842 63.6519L106.141 62.3533L94.8794 51.0919L93.5808 52.3905ZM104.842 66.1071L100.15 70.7993L101.449 72.0979L106.141 67.4057L104.842 66.1071ZM104.842 63.6519C105.52 64.3299 105.52 65.4291 104.842 66.1071L106.141 67.4057C107.536 66.0105 107.536 63.7485 106.141 62.3533L104.842 63.6519ZM91.1256 52.3905C91.8036 51.7125 92.9028 51.7125 93.5808 52.3905L94.8794 51.0919C93.4842 49.6967 91.2222 49.6967 89.827 51.0919L91.1256 52.3905ZM86.4334 59.5379C85.7554 58.8599 85.7554 57.7607 86.4334 57.0827L85.1347 55.7841C83.7396 57.1793 83.7396 59.4414 85.1347 60.8365L86.4334 59.5379ZM96.3961 72.0979C97.7913 73.4931 100.053 73.4931 101.449 72.0979L100.15 70.7993C99.472 71.4773 98.3727 71.4773 97.6948 70.7993L96.3961 72.0979ZM77.9873 73.0364C79.7019 71.3218 82.4817 71.3218 84.1963 73.0364L85.4949 71.7378C83.0631 69.306 79.1205 69.306 76.6887 71.7378L77.9873 73.0364ZM84.1963 73.0364C85.9109 74.7509 85.9109 77.5308 84.1963 79.2454L85.4949 80.544C87.9267 78.1122 87.9267 74.1695 85.4949 71.7378L84.1963 73.0364ZM84.1963 79.2454C82.4817 80.9599 79.7019 80.9599 77.9873 79.2454L76.6887 80.544C79.1205 82.9757 83.0631 82.9757 85.4949 80.544L84.1963 79.2454ZM77.9873 79.2454C76.2728 77.5308 76.2728 74.7509 77.9873 73.0364L76.6887 71.7378C74.2569 74.1695 74.2569 78.1122 76.6887 80.544L77.9873 79.2454Z" fill="url(#paint1_linear_433_310)"/>
</g>
<g filter="url(#filter2_b_433_310)">
<rect x="91" y="78" width="276" height="276" rx="50" fill="black" fill-opacity="0.01"/>
<rect x="91.5" y="78.5" width="275" height="275" rx="49.5" stroke="url(#paint2_linear_433_310)"/>
<path d="M259.194 280.28L259.196 256.177C259.197 242.863 248.404 232.069 235.09 232.069H181.111C167.799 232.069 157.007 242.86 157.006 256.172L157.003 280.28M301.001 280.282L301.003 256.178C301.004 242.864 290.211 232.071 276.897 232.071M254.55 156.454C260.47 160.846 264.307 167.887 264.307 175.825C264.307 183.762 260.47 190.804 254.55 195.196M232.706 175.823C232.706 189.137 221.914 199.929 208.601 199.929C195.288 199.929 184.496 189.137 184.496 175.823C184.496 162.51 195.288 151.718 208.601 151.718C221.914 151.718 232.706 162.51 232.706 175.823Z" stroke="url(#paint3_linear_433_310)" stroke-width="6.26087" stroke-linecap="round" stroke-linejoin="round"/>
</g>
<g filter="url(#filter3_b_433_310)">
<rect x="289" y="302" width="87.2" height="87.2" rx="24" fill="black" fill-opacity="0.01"/>
<rect x="289.25" y="302.25" width="86.7" height="86.7" rx="23.75" stroke="url(#paint4_linear_433_310)" stroke-width="0.5"/>
<path d="M353.401 324.8L354.319 324.8C354.319 324.521 354.192 324.257 353.974 324.083C353.756 323.909 353.471 323.843 353.199 323.904L353.401 324.8ZM327.37 358.865L328.289 358.866V358.865H327.37ZM325.761 363.453L326.48 364.023L326.48 364.023L325.761 363.453ZM321.599 366.144L321.369 365.255L321.369 365.255L321.599 366.144ZM312.843 362.631L313.632 362.161L313.632 362.161L312.843 362.631ZM311.867 357.879L312.777 358.003L312.777 358.003L311.867 357.879ZM314.081 353.534L313.443 352.874L313.443 352.874L314.081 353.534ZM318.57 351.392L318.454 350.481L318.454 350.481L318.57 351.392ZM323.478 352.337L323.03 353.138L323.065 353.158L323.101 353.174L323.478 352.337ZM326.536 356.422C326.747 356.883 327.293 357.085 327.754 356.874C328.214 356.662 328.416 356.117 328.205 355.656L326.536 356.422ZM353.401 356.313L354.319 356.314L354.319 356.313L353.401 356.313ZM351.791 360.901L351.072 360.33L351.072 360.33L351.791 360.901ZM342.636 363.274L342.294 364.126L342.294 364.126L342.636 363.274ZM337.898 355.327L336.988 355.204L336.988 355.204L337.898 355.327ZM340.112 350.982L339.473 350.323L339.473 350.323L340.112 350.982ZM349.508 349.785L349.06 350.586L349.095 350.606L349.131 350.622L349.508 349.785ZM353.199 323.904L328.858 329.396L329.262 331.188L353.603 325.696L353.199 323.904ZM326.452 332.405V358.865H328.289V332.405H326.452ZM326.452 358.865C326.452 360.314 325.958 361.726 325.041 362.882L326.48 364.023C327.651 362.547 328.288 360.734 328.289 358.866L326.452 358.865ZM325.041 362.882C324.124 364.039 322.835 364.875 321.369 365.255L321.83 367.032C323.674 366.554 325.31 365.499 326.48 364.023L325.041 362.882ZM321.369 365.255C319.903 365.635 318.348 365.536 316.947 364.974L316.264 366.678C318.029 367.386 319.985 367.511 321.83 367.032L321.369 365.255ZM316.947 364.974C315.547 364.412 314.383 363.421 313.632 362.161L312.055 363.101C313.016 364.715 314.498 365.97 316.264 366.678L316.947 364.974ZM313.632 362.161C312.881 360.901 312.582 359.44 312.777 358.003L310.958 357.755C310.706 359.608 311.092 361.487 312.055 363.101L313.632 362.161ZM312.777 358.003C312.973 356.566 313.653 355.226 314.72 354.194L313.443 352.874C312.085 354.188 311.21 355.903 310.958 357.755L312.777 358.003ZM314.72 354.194C315.787 353.161 317.18 352.494 318.686 352.303L318.454 350.481C316.561 350.722 314.799 351.561 313.443 352.874L314.72 354.194ZM318.686 352.303C320.191 352.111 321.719 352.406 323.03 353.138L323.926 351.535C322.269 350.609 320.346 350.24 318.454 350.481L318.686 352.303ZM323.101 353.174C323.168 353.204 323.385 353.334 323.729 353.585C324.051 353.821 324.436 354.127 324.822 354.467C325.633 355.181 326.306 355.923 326.536 356.422L328.205 355.656C327.798 354.769 326.85 353.806 326.036 353.089C325.609 352.713 325.181 352.371 324.812 352.102C324.464 351.848 324.113 351.616 323.855 351.5L323.101 353.174ZM352.483 324.8L352.482 353.487L354.319 353.487L354.319 324.8L352.483 324.8ZM352.482 353.487L352.483 356.313L354.319 356.313L354.319 353.487L352.482 353.487ZM352.483 356.313C352.482 357.762 351.988 359.174 351.072 360.33L352.511 361.471C353.681 359.995 354.319 358.182 354.319 356.314L352.483 356.313ZM351.072 360.33C350.155 361.487 348.865 362.323 347.399 362.703L347.86 364.481C349.705 364.002 351.341 362.947 352.511 361.471L351.072 360.33ZM347.399 362.703C345.933 363.083 344.378 362.984 342.978 362.422L342.294 364.126C344.06 364.835 346.015 364.959 347.86 364.481L347.399 362.703ZM342.978 362.422C341.577 361.86 340.414 360.869 339.662 359.609L338.085 360.549C339.047 362.163 340.528 363.418 342.294 364.126L342.978 362.422ZM339.662 359.609C338.911 358.349 338.612 356.888 338.808 355.451L336.988 355.204C336.736 357.056 337.123 358.936 338.085 360.549L339.662 359.609ZM338.808 355.451C339.003 354.014 339.684 352.674 340.75 351.642L339.473 350.323C338.116 351.636 337.24 353.351 336.988 355.204L338.808 355.451ZM340.75 351.642C341.817 350.609 343.211 349.942 344.716 349.751L344.484 347.929C342.592 348.17 340.83 349.009 339.473 350.323L340.75 351.642ZM344.716 349.751C346.222 349.559 347.749 349.854 349.06 350.586L349.956 348.983C348.299 348.057 346.376 347.688 344.484 347.929L344.716 349.751ZM349.131 350.622C349.198 350.652 349.415 350.782 349.759 351.033C350.082 351.269 350.466 351.575 350.852 351.914C351.663 352.629 352.337 353.37 352.566 353.87L354.235 353.103C353.828 352.217 352.88 351.253 352.066 350.536C351.639 350.16 351.211 349.819 350.842 349.55C350.495 349.296 350.143 349.064 349.885 348.948L349.131 350.622ZM328.858 329.396C327.451 329.713 326.452 330.963 326.452 332.405H328.289C328.289 331.822 328.693 331.316 329.262 331.188L328.858 329.396Z" fill="url(#paint5_linear_433_310)"/>
</g>
</g>
<defs>
<filter id="filter0_f_433_310" x="-11.1" y="5.9" width="475.2" height="280.2" filterUnits="userSpaceOnUse" color-interpolation-filters="sRGB">
<feFlood flood-opacity="0" result="BackgroundImageFix"/>
<feBlend mode="normal" in="SourceGraphic" in2="BackgroundImageFix" result="shape"/>
<feGaussianBlur stdDeviation="55.55" result="effect1_foregroundBlur_433_310"/>
</filter>
<filter id="filter1_b_433_310" x="2.63945" y="-9.36055" width="161.921" height="161.921" filterUnits="userSpaceOnUse" color-interpolation-filters="sRGB">
<feFlood flood-opacity="0" result="BackgroundImageFix"/>
<feGaussianBlur in="BackgroundImageFix" stdDeviation="18.6803"/>
<feComposite in2="SourceAlpha" operator="in" result="effect1_backgroundBlur_433_310"/>
<feBlend mode="normal" in="SourceGraphic" in2="effect1_backgroundBlur_433_310" result="shape"/>
</filter>
<filter id="filter2_b_433_310" x="-9" y="-22" width="476" height="476" filterUnits="userSpaceOnUse" color-interpolation-filters="sRGB">
<feFlood flood-opacity="0" result="BackgroundImageFix"/>
<feGaussianBlur in="BackgroundImageFix" stdDeviation="50"/>
<feComposite in2="SourceAlpha" operator="in" result="effect1_backgroundBlur_433_310"/>
<feBlend mode="normal" in="SourceGraphic" in2="effect1_backgroundBlur_433_310" result="shape"/>
</filter>
<filter id="filter3_b_433_310" x="251.639" y="264.639" width="161.921" height="161.921" filterUnits="userSpaceOnUse" color-interpolation-filters="sRGB">
<feFlood flood-opacity="0" result="BackgroundImageFix"/>
<feGaussianBlur in="BackgroundImageFix" stdDeviation="18.6803"/>
<feComposite in2="SourceAlpha" operator="in" result="effect1_backgroundBlur_433_310"/>
<feBlend mode="normal" in="SourceGraphic" in2="effect1_backgroundBlur_433_310" result="shape"/>
</filter>
<linearGradient id="paint0_linear_433_310" x1="45.1974" y1="30.4543" x2="90.5364" y2="115.2" gradientUnits="userSpaceOnUse">
<stop stop-color="white"/>
<stop offset="1" stop-color="white" stop-opacity="0"/>
</linearGradient>
<linearGradient id="paint1_linear_433_310" x1="85.4689" y1="50.9637" x2="85.4674" y2="149.074" gradientUnits="userSpaceOnUse">
<stop stop-color="white" stop-opacity="0.5"/>
<stop offset="1" stop-color="white" stop-opacity="0"/>
</linearGradient>
<linearGradient id="paint2_linear_433_310" x1="107.45" y1="85.7682" x2="217.119" y2="354" gradientUnits="userSpaceOnUse">
<stop stop-color="white"/>
<stop offset="1" stop-color="white" stop-opacity="0"/>
</linearGradient>
<linearGradient id="paint3_linear_433_310" x1="229.003" y1="151.718" x2="229.003" y2="280.282" gradientUnits="userSpaceOnUse">
<stop stop-color="white"/>
<stop offset="1" stop-color="white" stop-opacity="0"/>
</linearGradient>
<linearGradient id="paint4_linear_433_310" x1="294.197" y1="304.454" x2="339.536" y2="389.2" gradientUnits="userSpaceOnUse">
<stop stop-color="white"/>
<stop offset="1" stop-color="white" stop-opacity="0"/>
</linearGradient>
<linearGradient id="paint5_linear_433_310" x1="332.601" y1="324.8" x2="332.599" y2="422.911" gradientUnits="userSpaceOnUse">
<stop stop-color="white" stop-opacity="0.5"/>
<stop offset="1" stop-color="white" stop-opacity="0"/>
</linearGradient>
<clipPath id="clip0_433_310">
<rect width="424" height="380" fill="white"/>
</clipPath>
</defs>
</svg>
