<svg xmlns="http://www.w3.org/2000/svg" width="124" height="26" viewBox="0 0 124 26" fill="none">
  <path d="M36.0894 6.26125H41.9685L42.4621 9.67333C43.0249 8.81354 43.6999 8.08065 44.4871 7.47608C45.2729 6.87152 46.2688 6.41239 47.1842 6.09871C48.0995 5.78502 49.0853 5.62817 50.1417 5.62817C51.8788 5.62817 53.3396 5.97751 54.5255 6.67475C55.71 7.372 56.5735 8.39576 57.1132 9.74462C57.7234 8.86201 58.4272 8.11201 59.226 7.49462C60.0233 6.87865 61.0595 6.41382 62.0454 6.10013C63.0312 5.78644 64.0876 5.6296 65.2145 5.6296C66.8106 5.6296 68.1893 5.93188 69.3507 6.53644C70.5122 7.14101 71.3987 8.01933 72.0089 9.17C72.6192 10.3207 72.9243 11.7223 72.9243 13.3734V25.1638H66.3054V14.6296C66.3054 13.8397 66.1644 13.1767 65.8837 12.642C65.6016 12.1073 65.2087 11.7066 64.7036 11.4385C64.1984 11.1719 63.5594 11.0379 62.7851 11.0379C62.0108 11.0379 61.1862 11.1548 60.599 11.3872C60.0118 11.6196 59.508 11.9632 59.0849 12.4167C58.6618 12.8701 58.3452 13.4105 58.135 14.0379C57.9235 14.6652 57.8184 15.3753 57.8184 16.1652V25.1638H51.1995V14.5954C51.1995 13.8283 51.07 13.1824 50.8124 12.6591C50.5533 12.1358 50.1604 11.7351 49.6322 11.4556C49.1041 11.1762 48.4521 11.0364 47.6778 11.0364C46.9035 11.0364 46.1134 11.1534 45.5276 11.3858C44.9404 11.6182 44.4295 11.9618 43.9963 12.4152C43.5617 12.8687 43.2393 13.4091 43.0277 14.0364C42.8162 14.6638 42.7111 15.3739 42.7111 16.1638V25.1624H36.0922V6.26125H36.0894Z" fill="#F1F1F1"/>
  <path d="M6.61889 20.6424V0.282654H0V20.2988V25.1596H6.61889H9.2224V20.6424H6.61889Z" fill="#F1F1F1"/>
  <path d="M89.2679 5.74942C86.0945 5.74942 83.3744 6.78174 81.4703 8.59971V0.473755H74.7075V25.3507H80.696L81.3091 22.8768C83.1974 24.7518 85.9592 25.8041 89.2679 25.8041C95.4507 25.8041 99.6777 21.9785 99.6777 15.776C99.6777 9.57357 95.4018 5.748 89.2679 5.748V5.74942ZM87.3552 20.6254C83.7011 20.6254 81.7567 18.7561 81.7567 15.7775C81.7567 12.7989 83.7011 10.9296 87.3552 10.9296C91.2152 10.9296 92.9537 12.8488 92.9537 15.7775C92.9537 18.7062 91.2152 20.6254 87.3552 20.6254Z" fill="#F1F1F1"/>
  <path d="M112.081 5.74939C105.81 5.74939 100.375 9.22563 100.375 15.7774C100.375 22.3292 106.001 25.8055 112.081 25.8055C118.636 25.8055 123.786 22.3121 123.786 15.7774C123.786 8.84635 118.492 5.74939 112.081 5.74939ZM112.081 20.6253C108.426 20.6253 106.482 18.756 106.482 15.7774C106.482 12.7988 108.426 10.9295 112.081 10.9295C115.94 10.9295 117.679 12.8487 117.679 15.7774C117.679 18.7061 115.94 20.6253 112.081 20.6253Z" fill="#F1F1F1"/>
  <path d="M32.4927 20.6425V12.9514C32.4927 11.6952 32.2754 10.6087 31.8408 9.69046C31.4061 8.77221 30.7671 8.0108 29.9223 7.40624C29.0775 6.80168 28.0039 6.35396 26.7014 6.06308C25.3989 5.77221 23.8546 5.62677 22.0715 5.62677C19.9587 5.62677 18.1568 5.85348 16.6673 6.3069C15.1762 6.76033 13.9673 7.44616 13.0405 8.36441C12.1136 9.28266 11.4617 10.4519 11.086 11.8706L17.3883 12.8117C17.4819 12.2313 17.6992 11.748 18.0403 11.3644C18.3799 10.9809 18.8678 10.69 19.501 10.4918C20.1343 10.295 20.9446 10.1952 21.9304 10.1952C22.7277 10.1952 23.4027 10.2651 23.9554 10.4048C24.5066 10.5445 24.9585 10.7427 25.3111 10.998C25.6637 11.2546 25.9213 11.5797 26.0854 11.9747C26.2221 12.3041 26.2984 12.6919 26.3214 13.1339L19.3255 13.6843C17.2602 13.8939 15.5821 14.2418 14.2911 14.7309C13.0002 15.2185 12.0431 15.8772 11.4214 16.7014C10.7996 17.527 10.4888 18.545 10.4888 19.7541C10.4888 21.545 11.1753 22.958 12.5483 23.9918C13.9213 25.027 15.7922 25.5445 18.164 25.5445C19.337 25.5445 20.4178 25.4276 21.4037 25.1952C22.3895 24.9628 23.2876 24.6149 24.0964 24.1486C24.9067 23.6838 25.622 23.1263 26.2437 22.4747C26.3502 22.3635 26.4524 22.248 26.5517 22.131C26.5517 23.805 27.9204 25.161 29.61 25.161H34.3939V20.6439H32.4927V20.6425ZM26.1027 18.2356C25.8796 18.642 25.563 19.0156 25.1514 19.3521C24.7397 19.69 24.259 19.9737 23.7078 20.2061C23.1552 20.4386 22.5464 20.6253 21.8772 20.7637C21.2079 20.9034 20.474 20.9733 19.6766 20.9733C18.6908 20.9733 17.9697 20.8392 17.5121 20.5726C17.0544 20.306 16.8256 19.881 16.8256 19.2993C16.8256 18.7874 17.0127 18.3868 17.3883 18.0959C17.7639 17.805 18.3267 17.6253 19.0779 17.5555L26.4366 16.8454V16.9281C26.4366 17.3929 26.3243 17.8292 26.1027 18.2356Z" fill="#F1F1F1"/>
</svg>
