<svg width="424" height="380" viewBox="0 0 424 380" fill="none" xmlns="http://www.w3.org/2000/svg">
<g clip-path="url(#clip0_433_334)">
<g filter="url(#filter0_f_433_334)">
<ellipse cx="213" cy="119.3" rx="132" ry="30.5" fill="#3DBBFF"/>
</g>
<g filter="url(#filter1_b_433_334)">
<rect x="74" y="79" width="276" height="276" rx="50" fill="black" fill-opacity="0.01"/>
<rect x="74.5" y="79.5" width="275" height="275" rx="49.5" stroke="url(#paint0_linear_433_334)"/>
<path d="M230.318 200.398C230.86 201.964 232.568 202.794 234.134 202.252C235.7 201.71 236.53 200.002 235.988 198.436L230.318 200.398ZM221.003 190.25L221.135 187.253C221.091 187.251 221.047 187.25 221.003 187.25V190.25ZM203.003 217.75V220.75V217.75ZM221.003 245.25V248.25V245.25ZM203.003 245.25L202.871 248.247C202.915 248.249 202.959 248.25 203.003 248.25V245.25ZM193.688 235.102C193.146 233.537 191.438 232.707 189.872 233.248C188.306 233.79 187.476 235.499 188.018 237.065L193.688 235.102ZM215.003 176.5C215.003 174.843 213.66 173.5 212.003 173.5C210.346 173.5 209.003 174.843 209.003 176.5H215.003ZM209.003 190.25C209.003 191.907 210.346 193.25 212.003 193.25C213.66 193.25 215.003 191.907 215.003 190.25H209.003ZM215.003 245.25C215.003 243.593 213.66 242.25 212.003 242.25C210.346 242.25 209.003 243.593 209.003 245.25H215.003ZM209.003 259C209.003 260.657 210.346 262 212.003 262C213.66 262 215.003 260.657 215.003 259H209.003ZM235.988 198.436C234.9 195.29 232.909 192.54 230.263 190.544L226.649 195.333C228.334 196.604 229.615 198.366 230.318 200.398L235.988 198.436ZM230.263 190.544C227.616 188.547 224.438 187.398 221.135 187.253L220.871 193.247C222.953 193.339 224.965 194.063 226.649 195.333L230.263 190.544ZM221.003 187.25H203.003V193.25H221.003V187.25ZM203.003 187.25C198.609 187.25 194.406 189.029 191.316 192.176L195.598 196.379C197.571 194.369 200.236 193.25 203.003 193.25V187.25ZM191.316 192.176C188.228 195.321 186.503 199.575 186.503 204H192.503C192.503 201.132 193.622 198.391 195.598 196.379L191.316 192.176ZM186.503 204C186.503 208.425 188.228 212.679 191.316 215.825L195.598 211.621C193.622 209.609 192.503 206.869 192.503 204H186.503ZM191.316 215.825C194.406 218.972 198.609 220.75 203.003 220.75V214.75C200.236 214.75 197.571 213.631 195.598 211.621L191.316 215.825ZM203.003 220.75H221.003V214.75H203.003V220.75ZM221.003 220.75C223.77 220.75 226.435 221.869 228.408 223.879L232.69 219.676C229.6 216.529 225.397 214.75 221.003 214.75V220.75ZM228.408 223.879C230.384 225.891 231.503 228.632 231.503 231.5H237.503C237.503 227.075 235.778 222.821 232.69 219.676L228.408 223.879ZM231.503 231.5C231.503 234.369 230.384 237.109 228.408 239.121L232.69 243.325C235.778 240.179 237.503 235.925 237.503 231.5H231.503ZM228.408 239.121C226.435 241.131 223.77 242.25 221.003 242.25V248.25C225.397 248.25 229.6 246.472 232.69 243.325L228.408 239.121ZM221.003 242.25H203.003V248.25H221.003V242.25ZM203.135 242.253C201.053 242.162 199.041 241.438 197.357 240.167L193.743 244.957C196.389 246.953 199.568 248.102 202.871 248.247L203.135 242.253ZM197.357 240.167C195.672 238.896 194.391 237.134 193.688 235.102L188.018 237.065C189.106 240.21 191.097 242.961 193.743 244.957L197.357 240.167ZM209.003 176.5V190.25H215.003V176.5H209.003ZM209.003 245.25V259H215.003V245.25H209.003ZM281.003 217C281.003 255.108 250.111 286 212.003 286V292C253.424 292 287.003 258.422 287.003 217H281.003ZM212.003 286C173.895 286 143.003 255.108 143.003 217H137.003C137.003 258.422 170.582 292 212.003 292V286ZM143.003 217C143.003 178.893 173.895 148 212.003 148V142C170.582 142 137.003 175.579 137.003 217H143.003ZM212.003 148C250.111 148 281.003 178.893 281.003 217H287.003C287.003 175.579 253.424 142 212.003 142V148Z" fill="url(#paint1_linear_433_334)"/>
<g filter="url(#filter2_b_433_334)">
<rect x="271" y="292" width="88" height="88" rx="24" fill="black" fill-opacity="0.01"/>
<rect x="271.25" y="292.25" width="87.5" height="87.5" rx="23.75" stroke="url(#paint2_linear_433_334)" stroke-width="0.5"/>
<path d="M303.119 328.96V326.949C303.119 320.263 308.418 314.88 314.999 314.88C321.58 314.88 326.879 320.263 326.879 326.949V328.96M303.119 328.96C300.941 328.96 299.159 330.77 299.159 332.983V353.097C299.159 355.31 300.941 357.12 303.119 357.12H326.879C329.057 357.12 330.839 355.31 330.839 353.097V332.983C330.839 330.77 329.057 328.96 326.879 328.96M303.119 328.96H326.879M314.999 345.24V339.96" stroke="url(#paint3_linear_433_334)" stroke-width="1.83652" stroke-linecap="round"/>
</g>
</g>
</g>
<defs>
<filter id="filter0_f_433_334" x="-30.1" y="-22.3002" width="486.2" height="283.2" filterUnits="userSpaceOnUse" color-interpolation-filters="sRGB">
<feFlood flood-opacity="0" result="BackgroundImageFix"/>
<feBlend mode="normal" in="SourceGraphic" in2="BackgroundImageFix" result="shape"/>
<feGaussianBlur stdDeviation="55.55" result="effect1_foregroundBlur_433_334"/>
</filter>
<filter id="filter1_b_433_334" x="-26" y="-21" width="485" height="501" filterUnits="userSpaceOnUse" color-interpolation-filters="sRGB">
<feFlood flood-opacity="0" result="BackgroundImageFix"/>
<feGaussianBlur in="BackgroundImageFix" stdDeviation="50"/>
<feComposite in2="SourceAlpha" operator="in" result="effect1_backgroundBlur_433_334"/>
<feBlend mode="normal" in="SourceGraphic" in2="effect1_backgroundBlur_433_334" result="shape"/>
</filter>
<filter id="filter2_b_433_334" x="233.639" y="254.639" width="162.721" height="162.721" filterUnits="userSpaceOnUse" color-interpolation-filters="sRGB">
<feFlood flood-opacity="0" result="BackgroundImageFix"/>
<feGaussianBlur in="BackgroundImageFix" stdDeviation="18.6803"/>
<feComposite in2="SourceAlpha" operator="in" result="effect1_backgroundBlur_433_334"/>
<feBlend mode="normal" in="SourceGraphic" in2="effect1_backgroundBlur_433_334" result="shape"/>
</filter>
<linearGradient id="paint0_linear_433_334" x1="90.4503" y1="86.7682" x2="200.119" y2="355" gradientUnits="userSpaceOnUse">
<stop stop-color="white"/>
<stop offset="1" stop-color="white" stop-opacity="0"/>
</linearGradient>
<linearGradient id="paint1_linear_433_334" x1="198.999" y1="103.555" x2="192.402" y2="276.242" gradientUnits="userSpaceOnUse">
<stop stop-color="white"/>
<stop offset="1" stop-color="white" stop-opacity="0"/>
</linearGradient>
<linearGradient id="paint2_linear_433_334" x1="276.245" y1="294.477" x2="322" y2="380" gradientUnits="userSpaceOnUse">
<stop stop-color="white"/>
<stop offset="1" stop-color="white" stop-opacity="0"/>
</linearGradient>
<linearGradient id="paint3_linear_433_334" x1="314.999" y1="314.88" x2="314.997" y2="414.5" gradientUnits="userSpaceOnUse">
<stop stop-color="white" stop-opacity="0.5"/>
<stop offset="1" stop-color="white" stop-opacity="0"/>
</linearGradient>
<clipPath id="clip0_433_334">
<rect width="424" height="380" fill="white"/>
</clipPath>
</defs>
</svg>
