<svg width="488" height="404" viewBox="0 0 488 404" fill="none" xmlns="http://www.w3.org/2000/svg">
<g filter="url(#filter0_f_239_2996)">
<ellipse cx="244" cy="142.5" rx="132" ry="30.5" fill="#3DBBFF"/>
</g>
<g filter="url(#filter1_b_239_2996)">
<rect x="105" y="102.2" width="276" height="276" rx="50" fill="black" fill-opacity="0.01"/>
<rect x="105.5" y="102.7" width="275" height="275" rx="49.5" stroke="url(#paint0_linear_239_2996)"/>
<path d="M261.314 223.598C261.856 225.164 263.564 225.994 265.13 225.452C266.696 224.91 267.526 223.202 266.984 221.636L261.314 223.598ZM251.999 213.45L252.131 210.453C252.087 210.451 252.043 210.45 251.999 210.45V213.45ZM233.999 240.95V243.95V240.95ZM251.999 268.45V271.45V268.45ZM233.999 268.45L233.867 271.447C233.911 271.449 233.955 271.45 233.999 271.45V268.45ZM224.684 258.302C224.142 256.737 222.434 255.907 220.868 256.448C219.302 256.99 218.472 258.699 219.014 260.265L224.684 258.302ZM245.999 199.7C245.999 198.043 244.656 196.7 242.999 196.7C241.342 196.7 239.999 198.043 239.999 199.7H245.999ZM239.999 213.45C239.999 215.107 241.342 216.45 242.999 216.45C244.656 216.45 245.999 215.107 245.999 213.45H239.999ZM245.999 268.45C245.999 266.793 244.656 265.45 242.999 265.45C241.342 265.45 239.999 266.793 239.999 268.45H245.999ZM239.999 282.2C239.999 283.857 241.342 285.2 242.999 285.2C244.656 285.2 245.999 283.857 245.999 282.2H239.999ZM266.984 221.636C265.896 218.49 263.905 215.74 261.259 213.744L257.645 218.533C259.33 219.804 260.611 221.566 261.314 223.598L266.984 221.636ZM261.259 213.744C258.613 211.747 255.434 210.598 252.131 210.453L251.867 216.447C253.949 216.539 255.961 217.263 257.645 218.533L261.259 213.744ZM251.999 210.45H233.999V216.45H251.999V210.45ZM233.999 210.45C229.605 210.45 225.402 212.229 222.312 215.376L226.594 219.579C228.567 217.569 231.232 216.45 233.999 216.45V210.45ZM222.312 215.376C219.224 218.521 217.499 222.775 217.499 227.2H223.499C223.499 224.332 224.618 221.591 226.594 219.579L222.312 215.376ZM217.499 227.2C217.499 231.625 219.224 235.879 222.312 239.025L226.594 234.821C224.618 232.809 223.499 230.069 223.499 227.2H217.499ZM222.312 239.025C225.402 242.172 229.605 243.95 233.999 243.95V237.95C231.232 237.95 228.567 236.831 226.594 234.821L222.312 239.025ZM233.999 243.95H251.999V237.95H233.999V243.95ZM251.999 243.95C254.766 243.95 257.431 245.069 259.404 247.079L263.686 242.876C260.596 239.729 256.393 237.95 251.999 237.95V243.95ZM259.404 247.079C261.38 249.091 262.499 251.832 262.499 254.7H268.499C268.499 250.275 266.774 246.021 263.686 242.876L259.404 247.079ZM262.499 254.7C262.499 257.569 261.38 260.309 259.404 262.321L263.686 266.525C266.774 263.379 268.499 259.125 268.499 254.7H262.499ZM259.404 262.321C257.431 264.331 254.766 265.45 251.999 265.45V271.45C256.393 271.45 260.596 269.672 263.686 266.525L259.404 262.321ZM251.999 265.45H233.999V271.45H251.999V265.45ZM234.131 265.453C232.049 265.362 230.037 264.638 228.353 263.367L224.739 268.157C227.385 270.153 230.564 271.302 233.867 271.447L234.131 265.453ZM228.353 263.367C226.668 262.096 225.387 260.334 224.684 258.302L219.014 260.265C220.102 263.41 222.093 266.161 224.739 268.157L228.353 263.367ZM239.999 199.7V213.45H245.999V199.7H239.999ZM239.999 268.45V282.2H245.999V268.45H239.999ZM311.999 240.2C311.999 278.308 281.107 309.2 242.999 309.2V315.2C284.42 315.2 317.999 281.622 317.999 240.2H311.999ZM242.999 309.2C204.891 309.2 173.999 278.308 173.999 240.2H167.999C167.999 281.622 201.578 315.2 242.999 315.2V309.2ZM173.999 240.2C173.999 202.093 204.891 171.2 242.999 171.2V165.2C201.578 165.2 167.999 198.779 167.999 240.2H173.999ZM242.999 171.2C281.107 171.2 311.999 202.093 311.999 240.2H317.999C317.999 198.779 284.42 165.2 242.999 165.2V171.2Z" fill="url(#paint1_linear_239_2996)"/>
<g filter="url(#filter2_b_239_2996)">
<rect x="302" y="315.2" width="88" height="88" rx="24" fill="black" fill-opacity="0.01"/>
<rect x="302.25" y="315.45" width="87.5" height="87.5" rx="23.75" stroke="url(#paint2_linear_239_2996)" stroke-width="0.5"/>
<path d="M334.12 352.16V350.149C334.12 343.463 339.419 338.08 346 338.08C352.581 338.08 357.88 343.463 357.88 350.149V352.16M334.12 352.16C331.942 352.16 330.16 353.97 330.16 356.183V376.297C330.16 378.51 331.942 380.32 334.12 380.32H357.88C360.058 380.32 361.84 378.51 361.84 376.297V356.183C361.84 353.97 360.058 352.16 357.88 352.16M334.12 352.16H357.88M346 368.44V363.16" stroke="url(#paint3_linear_239_2996)" stroke-width="1.83652" stroke-linecap="round"/>
</g>
</g>
<defs>
<filter id="filter0_f_239_2996" x="0.900002" y="0.899757" width="486.2" height="283.2" filterUnits="userSpaceOnUse" color-interpolation-filters="sRGB">
<feFlood flood-opacity="0" result="BackgroundImageFix"/>
<feBlend mode="normal" in="SourceGraphic" in2="BackgroundImageFix" result="shape"/>
<feGaussianBlur stdDeviation="55.55" result="effect1_foregroundBlur_239_2996"/>
</filter>
<filter id="filter1_b_239_2996" x="5" y="2.19995" width="485" height="501" filterUnits="userSpaceOnUse" color-interpolation-filters="sRGB">
<feFlood flood-opacity="0" result="BackgroundImageFix"/>
<feGaussianBlur in="BackgroundImageFix" stdDeviation="50"/>
<feComposite in2="SourceAlpha" operator="in" result="effect1_backgroundBlur_239_2996"/>
<feBlend mode="normal" in="SourceGraphic" in2="effect1_backgroundBlur_239_2996" result="shape"/>
</filter>
<filter id="filter2_b_239_2996" x="264.639" y="277.839" width="162.721" height="162.721" filterUnits="userSpaceOnUse" color-interpolation-filters="sRGB">
<feFlood flood-opacity="0" result="BackgroundImageFix"/>
<feGaussianBlur in="BackgroundImageFix" stdDeviation="18.6803"/>
<feComposite in2="SourceAlpha" operator="in" result="effect1_backgroundBlur_239_2996"/>
<feBlend mode="normal" in="SourceGraphic" in2="effect1_backgroundBlur_239_2996" result="shape"/>
</filter>
<linearGradient id="paint0_linear_239_2996" x1="121.45" y1="109.968" x2="231.119" y2="378.2" gradientUnits="userSpaceOnUse">
<stop stop-color="white"/>
<stop offset="1" stop-color="white" stop-opacity="0"/>
</linearGradient>
<linearGradient id="paint1_linear_239_2996" x1="229.995" y1="126.755" x2="223.398" y2="299.442" gradientUnits="userSpaceOnUse">
<stop stop-color="white"/>
<stop offset="1" stop-color="white" stop-opacity="0"/>
</linearGradient>
<linearGradient id="paint2_linear_239_2996" x1="307.245" y1="317.677" x2="353" y2="403.2" gradientUnits="userSpaceOnUse">
<stop stop-color="white"/>
<stop offset="1" stop-color="white" stop-opacity="0"/>
</linearGradient>
<linearGradient id="paint3_linear_239_2996" x1="346" y1="338.08" x2="345.998" y2="437.7" gradientUnits="userSpaceOnUse">
<stop stop-color="white" stop-opacity="0.5"/>
<stop offset="1" stop-color="white" stop-opacity="0"/>
</linearGradient>
</defs>
</svg>
