<svg width="424" height="380" viewBox="0 0 424 380" fill="none" xmlns="http://www.w3.org/2000/svg">
<g clip-path="url(#clip0_433_322)">
<g filter="url(#filter0_f_433_322)">
<ellipse cx="205" cy="125.3" rx="132" ry="30.5" fill="#3DBBFF"/>
</g>
<g filter="url(#filter1_b_433_322)">
<rect x="66" y="85" width="276" height="276" rx="50" fill="black" fill-opacity="0.01"/>
<rect x="66.5" y="85.5" width="275" height="275" rx="49.5" stroke="url(#paint0_linear_433_322)"/>
<path d="M245.329 193.997L192.08 247.246C185.748 253.578 175.482 253.578 169.151 247.246C162.805 240.901 162.821 230.609 169.185 224.283L210.478 183.233L220.848 172.863C233.465 160.246 253.922 160.246 266.54 172.863C279.157 185.481 279.157 205.938 266.54 218.555L256.326 228.77L217.614 267.481C197.59 288.34 167.248 291.514 146.033 271.148C125.078 251.031 128.63 220.872 149.818 199.684L188.376 161.12" stroke="url(#paint1_linear_433_322)" stroke-width="6" stroke-linecap="round"/>
</g>
<g filter="url(#filter2_b_433_322)">
<rect x="170" y="320" width="62.2" height="41" rx="20.5" fill="black" fill-opacity="0.01"/>
<rect x="170.25" y="320.25" width="61.7" height="40.5" rx="20.25" stroke="url(#paint2_linear_433_322)" stroke-width="0.5"/>
<path d="M188.56 346.5V335.3H192.144C192.741 335.3 193.28 335.447 193.76 335.74C194.24 336.028 194.621 336.42 194.904 336.916C195.192 337.407 195.336 337.959 195.336 338.572C195.336 339.191 195.189 339.748 194.896 340.244C194.608 340.74 194.221 341.132 193.736 341.42C193.256 341.708 192.725 341.852 192.144 341.852H189.68V346.5H188.56ZM189.68 340.732H192.056C192.45 340.732 192.81 340.636 193.136 340.444C193.466 340.247 193.728 339.983 193.92 339.652C194.117 339.316 194.216 338.937 194.216 338.516C194.216 338.095 194.117 337.719 193.92 337.388C193.728 337.052 193.466 336.788 193.136 336.596C192.81 336.399 192.45 336.3 192.056 336.3H189.68V340.732ZM196.646 346.5V335.3H200.35C201.123 335.3 201.849 335.447 202.526 335.74C203.203 336.028 203.798 336.431 204.31 336.948C204.822 337.46 205.222 338.055 205.51 338.732C205.803 339.404 205.95 340.127 205.95 340.9C205.95 341.673 205.803 342.399 205.51 343.076C205.222 343.748 204.822 344.343 204.31 344.86C203.798 345.372 203.203 345.775 202.526 346.068C201.849 346.356 201.123 346.5 200.35 346.5H196.646ZM197.766 345.38H200.35C200.969 345.38 201.547 345.265 202.086 345.036C202.63 344.801 203.107 344.479 203.518 344.068C203.929 343.657 204.249 343.183 204.478 342.644C204.713 342.1 204.83 341.519 204.83 340.9C204.83 340.281 204.713 339.703 204.478 339.164C204.249 338.62 203.926 338.143 203.51 337.732C203.099 337.321 202.625 337.001 202.086 336.772C201.547 336.537 200.969 336.42 200.35 336.42H197.766V345.38ZM207.107 346.5V335.3H213.659V336.42H208.227V339.94H212.891V341.06H208.227V346.5H207.107Z" fill="url(#paint3_linear_433_322)"/>
</g>
<g filter="url(#filter3_b_433_322)">
<rect x="224" y="320" width="61.2" height="41" rx="20.5" fill="black" fill-opacity="0.01"/>
<rect x="224.25" y="320.25" width="60.7" height="40.5" rx="20.25" stroke="url(#paint4_linear_433_322)" stroke-width="0.5"/>
<path d="M240.06 346.5V335.3H243.644C244.241 335.3 244.78 335.447 245.26 335.74C245.74 336.028 246.121 336.42 246.404 336.916C246.692 337.407 246.836 337.959 246.836 338.572C246.836 339.191 246.689 339.748 246.396 340.244C246.108 340.74 245.721 341.132 245.236 341.42C244.756 341.708 244.225 341.852 243.644 341.852H241.18V346.5H240.06ZM241.18 340.732H243.556C243.95 340.732 244.31 340.636 244.636 340.444C244.966 340.247 245.228 339.983 245.42 339.652C245.617 339.316 245.716 338.937 245.716 338.516C245.716 338.095 245.617 337.719 245.42 337.388C245.228 337.052 244.966 336.788 244.636 336.596C244.31 336.399 243.95 336.3 243.556 336.3H241.18V340.732ZM248.146 346.5V335.3H249.362L255.274 344.476V335.3H256.394V346.5H255.186L249.266 337.324V346.5H248.146ZM263.19 346.708C262.422 346.708 261.702 346.559 261.03 346.26C260.363 345.956 259.779 345.537 259.278 345.004C258.776 344.465 258.384 343.847 258.102 343.148C257.819 342.444 257.678 341.692 257.678 340.892C257.678 340.076 257.824 339.316 258.118 338.612C258.411 337.908 258.814 337.295 259.326 336.772C259.838 336.244 260.424 335.833 261.086 335.54C261.752 335.247 262.459 335.1 263.206 335.1C264.064 335.1 264.875 335.3 265.638 335.7C266.406 336.1 267.056 336.668 267.59 337.404L266.59 337.948C266.163 337.388 265.648 336.959 265.046 336.66C264.448 336.361 263.832 336.212 263.198 336.212C262.595 336.212 262.027 336.335 261.494 336.58C260.966 336.82 260.499 337.156 260.094 337.588C259.688 338.02 259.371 338.519 259.142 339.084C258.912 339.649 258.798 340.257 258.798 340.908C258.798 341.553 258.912 342.159 259.142 342.724C259.371 343.289 259.686 343.788 260.086 344.22C260.491 344.647 260.96 344.983 261.494 345.228C262.027 345.468 262.598 345.588 263.206 345.588C263.707 345.588 264.182 345.503 264.63 345.332C265.083 345.156 265.496 344.911 265.87 344.596C266.243 344.281 266.558 343.913 266.814 343.492C267.075 343.071 267.264 342.612 267.382 342.116H264.358V341.1H268.686C268.67 341.873 268.515 342.599 268.222 343.276C267.928 343.953 267.528 344.551 267.022 345.068C266.52 345.58 265.942 345.983 265.286 346.276C264.635 346.564 263.936 346.708 263.19 346.708Z" fill="url(#paint5_linear_433_322)"/>
</g>
<g filter="url(#filter4_b_433_322)">
<rect x="275" y="320" width="66" height="41" rx="20.5" fill="black" fill-opacity="0.01"/>
<rect x="275.25" y="320.25" width="65.5" height="40.5" rx="20.25" stroke="url(#paint6_linear_433_322)" stroke-width="0.5"/>
<path d="M293.46 346.5L295.628 335.3H296.444L299.58 343.54L302.7 335.3H303.516L305.692 346.5H304.548L302.892 337.932L299.932 345.764H299.212L296.252 337.932L294.596 346.5H293.46ZM307.031 346.5V335.3H310.615C311.212 335.3 311.751 335.447 312.231 335.74C312.711 336.028 313.092 336.42 313.375 336.916C313.663 337.407 313.807 337.959 313.807 338.572C313.807 339.191 313.66 339.748 313.367 340.244C313.079 340.74 312.692 341.132 312.207 341.42C311.727 341.708 311.196 341.852 310.615 341.852H308.151V346.5H307.031ZM308.151 340.732H310.527C310.921 340.732 311.281 340.636 311.607 340.444C311.937 340.247 312.199 339.983 312.391 339.652C312.588 339.316 312.687 338.937 312.687 338.516C312.687 338.095 312.588 337.719 312.391 337.388C312.199 337.052 311.937 336.788 311.607 336.596C311.281 336.399 310.921 336.3 310.527 336.3H308.151V340.732ZM319.598 346.5V343.356H314.766V342.22L319.31 335.3H320.718V342.236H321.894V343.356H320.718V346.5H319.598ZM316.094 342.22L319.598 342.236L319.574 336.9L316.094 342.22Z" fill="url(#paint7_linear_433_322)"/>
</g>
</g>
<defs>
<filter id="filter0_f_433_322" x="-38.1" y="-16.3002" width="486.2" height="283.2" filterUnits="userSpaceOnUse" color-interpolation-filters="sRGB">
<feFlood flood-opacity="0" result="BackgroundImageFix"/>
<feBlend mode="normal" in="SourceGraphic" in2="BackgroundImageFix" result="shape"/>
<feGaussianBlur stdDeviation="55.55" result="effect1_foregroundBlur_433_322"/>
</filter>
<filter id="filter1_b_433_322" x="-34" y="-15" width="476" height="476" filterUnits="userSpaceOnUse" color-interpolation-filters="sRGB">
<feFlood flood-opacity="0" result="BackgroundImageFix"/>
<feGaussianBlur in="BackgroundImageFix" stdDeviation="50"/>
<feComposite in2="SourceAlpha" operator="in" result="effect1_backgroundBlur_433_322"/>
<feBlend mode="normal" in="SourceGraphic" in2="effect1_backgroundBlur_433_322" result="shape"/>
</filter>
<filter id="filter2_b_433_322" x="132.639" y="282.639" width="136.921" height="115.721" filterUnits="userSpaceOnUse" color-interpolation-filters="sRGB">
<feFlood flood-opacity="0" result="BackgroundImageFix"/>
<feGaussianBlur in="BackgroundImageFix" stdDeviation="18.6803"/>
<feComposite in2="SourceAlpha" operator="in" result="effect1_backgroundBlur_433_322"/>
<feBlend mode="normal" in="SourceGraphic" in2="effect1_backgroundBlur_433_322" result="shape"/>
</filter>
<filter id="filter3_b_433_322" x="186.639" y="282.639" width="135.921" height="115.721" filterUnits="userSpaceOnUse" color-interpolation-filters="sRGB">
<feFlood flood-opacity="0" result="BackgroundImageFix"/>
<feGaussianBlur in="BackgroundImageFix" stdDeviation="18.6803"/>
<feComposite in2="SourceAlpha" operator="in" result="effect1_backgroundBlur_433_322"/>
<feBlend mode="normal" in="SourceGraphic" in2="effect1_backgroundBlur_433_322" result="shape"/>
</filter>
<filter id="filter4_b_433_322" x="237.639" y="282.639" width="140.721" height="115.721" filterUnits="userSpaceOnUse" color-interpolation-filters="sRGB">
<feFlood flood-opacity="0" result="BackgroundImageFix"/>
<feGaussianBlur in="BackgroundImageFix" stdDeviation="18.6803"/>
<feComposite in2="SourceAlpha" operator="in" result="effect1_backgroundBlur_433_322"/>
<feBlend mode="normal" in="SourceGraphic" in2="effect1_backgroundBlur_433_322" result="shape"/>
</filter>
<linearGradient id="paint0_linear_433_322" x1="82.4503" y1="92.7682" x2="192.119" y2="361" gradientUnits="userSpaceOnUse">
<stop stop-color="white"/>
<stop offset="1" stop-color="white" stop-opacity="0"/>
</linearGradient>
<linearGradient id="paint1_linear_433_322" x1="190.999" y1="125.5" x2="186.125" y2="273.971" gradientUnits="userSpaceOnUse">
<stop stop-color="white"/>
<stop offset="1" stop-color="white" stop-opacity="0"/>
</linearGradient>
<linearGradient id="paint2_linear_433_322" x1="173.707" y1="321.154" x2="189.782" y2="366.736" gradientUnits="userSpaceOnUse">
<stop stop-color="white"/>
<stop offset="1" stop-color="white" stop-opacity="0"/>
</linearGradient>
<linearGradient id="paint3_linear_433_322" x1="201.1" y1="328.5" x2="201.1" y2="352.5" gradientUnits="userSpaceOnUse">
<stop stop-color="white" stop-opacity="0.5"/>
<stop offset="1" stop-color="white" stop-opacity="0.5"/>
</linearGradient>
<linearGradient id="paint4_linear_433_322" x1="227.648" y1="321.154" x2="243.926" y2="366.571" gradientUnits="userSpaceOnUse">
<stop stop-color="white"/>
<stop offset="1" stop-color="white" stop-opacity="0"/>
</linearGradient>
<linearGradient id="paint5_linear_433_322" x1="254.6" y1="328.5" x2="254.6" y2="352.5" gradientUnits="userSpaceOnUse">
<stop stop-color="white" stop-opacity="0.5"/>
<stop offset="1" stop-color="white" stop-opacity="0.5"/>
</linearGradient>
<linearGradient id="paint6_linear_433_322" x1="278.934" y1="321.154" x2="294.273" y2="367.307" gradientUnits="userSpaceOnUse">
<stop stop-color="white"/>
<stop offset="1" stop-color="white" stop-opacity="0"/>
</linearGradient>
<linearGradient id="paint7_linear_433_322" x1="308" y1="328.5" x2="308" y2="352.5" gradientUnits="userSpaceOnUse">
<stop stop-color="white" stop-opacity="0.5"/>
<stop offset="1" stop-color="white" stop-opacity="0.5"/>
</linearGradient>
<clipPath id="clip0_433_322">
<rect width="424" height="380" fill="white"/>
</clipPath>
</defs>
</svg>
